<!-- Generator: Adobe Illustrator 21.0.0, SVG Export Plug-In  -->
<svg version="1.1"
	 xmlns="http://www.w3.org/2000/svg" xmlns:xlink="http://www.w3.org/1999/xlink" xmlns:a="http://ns.adobe.com/AdobeSVGViewerExtensions/3.0/"
	 x="0px" y="0px" width="1075.272px" height="321.461px" viewBox="0 0 1075.272 321.461"
	 style="enable-background:new 0 0 1075.272 321.461;" xml:space="preserve">
<style type="text/css">
	.st0{fill:#3F455E;}
</style>
<defs>
</defs>
<g>
	<g>
		<g>
			<rect x="119.313" y="288" class="st0" width="119.313" height="18"/>
		</g>
	</g>
	<g>
		<g>
			<rect x="119.313" class="st0" width="119.313" height="18"/>
		</g>
	</g>
	<g>
		<g>
			<rect x="159.085" y="144" class="st0" width="79.542" height="18"/>
		</g>
	</g>
	<g>
		<polyline class="st0" points="0,216 79.542,216 79.542,234 0,234 		"/>
	</g>
	<g>
		<polyline class="st0" points="0,72 79.542,72 79.542,90 0,90 		"/>
	</g>
</g>
<g>
	<path class="st0" d="M368.912,52.521V0.001h32.598V4.68h-27.467v19.016h23.393v4.527h-23.393v19.619h27.467v4.679H368.912z"/>
	<path class="st0" d="M434.787,52.521V47.39h-0.151c-1.258,2.013-2.893,3.446-4.904,4.301c-2.013,0.854-4.025,1.283-6.037,1.283
		c-1.762,0-3.446-0.29-5.056-0.868c-1.61-0.578-3.031-1.408-4.264-2.49c-1.232-1.081-2.214-2.415-2.942-3.999
		c-0.729-1.585-1.095-3.407-1.095-5.471V15.093h4.83v23.166c0,3.22,0.842,5.723,2.527,7.508c1.686,1.786,4.113,2.679,7.282,2.679
		c1.407,0,2.717-0.251,3.924-0.754s2.251-1.232,3.132-2.188c0.879-0.955,1.571-2.087,2.075-3.396
		c0.502-1.308,0.754-2.767,0.754-4.377V15.093h4.679v37.428H434.787z"/>
	<path class="st0" d="M471.837,20.602c-0.805-0.453-1.648-0.779-2.527-0.981c-0.881-0.2-1.749-0.302-2.604-0.302
		c-2.867,0-5.22,0.905-7.056,2.717c-1.837,1.811-2.754,4.377-2.754,7.696v22.789h-4.754V15.093h4.754v5.584h0.302
		c1.308-2.364,2.917-3.962,4.829-4.792c1.911-0.83,3.924-1.219,6.037-1.169c1.156,0.051,2.226,0.177,3.207,0.377
		c0.98,0.202,1.822,0.504,2.527,0.905L471.837,20.602z"/>
	<path class="st0" d="M493.721,14.791c2.717,0,5.105,0.528,7.169,1.585c2.062,1.056,3.722,2.565,4.98,4.527
		c0.854,1.309,1.533,3.056,2.037,5.244c0.502,2.188,0.729,4.843,0.679,7.961c-0.051,2.969-0.365,5.483-0.943,7.546
		c-0.578,2.063-1.346,3.799-2.301,5.207c-1.409,2.112-3.195,3.659-5.357,4.641c-2.164,0.98-4.528,1.472-7.094,1.472
		c-5.131,0-8.979-1.66-11.545-4.98c-1.207-1.609-2.075-3.559-2.604-5.849c-0.528-2.288-0.792-5.042-0.792-8.263
		c0-2.816,0.251-5.206,0.754-7.168s1.232-3.698,2.188-5.207c1.308-2.113,3.043-3.76,5.207-4.942
		C488.262,15.383,490.803,14.791,493.721,14.791z M493.494,19.017c-1.912,0-3.597,0.428-5.056,1.283s-2.616,2.013-3.471,3.471
		c-0.755,1.207-1.32,2.604-1.698,4.188c-0.377,1.584-0.565,3.584-0.565,5.999c0,2.414,0.188,4.439,0.565,6.074
		c0.378,1.635,0.918,3.031,1.623,4.188c0.854,1.409,1.974,2.503,3.357,3.283c1.383,0.78,3.006,1.169,4.867,1.169
		c1.962,0,3.723-0.427,5.282-1.282c1.559-0.855,2.766-2.238,3.622-4.15c0.502-1.006,0.917-2.238,1.245-3.697
		c0.326-1.459,0.49-3.32,0.49-5.584c0-2.415-0.139-4.364-0.415-5.849c-0.277-1.483-0.667-2.729-1.17-3.735
		C500.361,20.803,497.468,19.017,493.494,19.017z"/>
	<path class="st0" d="M523.527,15.093V20.3l0.151,0.075c1.509-2.213,3.244-3.709,5.206-4.49c1.962-0.779,3.898-1.169,5.811-1.169
		c2.717,0,4.942,0.528,6.679,1.584c1.735,1.057,3.105,2.466,4.112,4.226c1.006,1.762,1.709,3.786,2.112,6.075
		c0.402,2.289,0.604,4.641,0.604,7.055c0,2.365-0.214,4.705-0.641,7.019c-0.429,2.314-1.183,4.376-2.264,6.188
		c-1.083,1.811-2.566,3.282-4.452,4.414c-1.887,1.132-4.264,1.698-7.131,1.698c-2.365,0-4.365-0.465-5.999-1.396
		c-1.636-0.93-2.981-2.2-4.037-3.811h-0.151v19.694h-4.754V15.093H523.527z M523.527,33.807c0,1.762,0.138,3.509,0.415,5.244
		c0.276,1.736,0.767,3.283,1.472,4.641c0.704,1.358,1.697,2.466,2.98,3.32c1.283,0.856,2.905,1.283,4.867,1.283
		c2.162,0,3.897-0.439,5.207-1.32c1.308-0.88,2.312-2.024,3.018-3.434c0.704-1.408,1.17-2.955,1.396-4.641s0.34-3.358,0.34-5.019
		c0-1.559-0.089-3.207-0.265-4.942c-0.177-1.735-0.579-3.32-1.207-4.754c-0.63-1.434-1.585-2.615-2.867-3.547
		c-1.283-0.93-3.031-1.396-5.245-1.396c-2.112,0-3.836,0.479-5.169,1.434c-1.333,0.956-2.365,2.164-3.094,3.622
		c-0.729,1.46-1.22,3.031-1.471,4.716C523.652,30.701,523.527,32.298,523.527,33.807z"/>
	<path class="st0" d="M562.086,35.09c-0.051,1.861,0.125,3.622,0.528,5.282c0.402,1.659,1.081,3.106,2.037,4.339
		c0.955,1.232,2.176,2.214,3.66,2.942c1.483,0.729,3.257,1.094,5.319,1.094c1.358,0,2.842-0.288,4.452-0.867
		c1.609-0.578,3.044-1.37,4.302-2.377l2.942,3.244c-1.66,1.46-3.471,2.528-5.433,3.207c-1.962,0.68-3.999,1.02-6.112,1.02
		c-1.912,0-3.837-0.265-5.772-0.793c-1.938-0.528-3.697-1.483-5.282-2.867c-1.585-1.383-2.881-3.308-3.887-5.772
		c-1.007-2.464-1.509-5.659-1.509-9.583c0-3.723,0.478-6.816,1.434-9.282c0.955-2.464,2.176-4.438,3.66-5.923
		c1.483-1.483,3.144-2.528,4.98-3.132c1.835-0.604,3.634-0.905,5.395-0.905c2.265,0,4.302,0.403,6.112,1.207
		c1.812,0.806,3.37,1.937,4.679,3.396c1.308,1.46,2.313,3.22,3.019,5.282c0.704,2.063,1.057,4.327,1.057,6.791v3.698H562.086z
		 M582.913,31.166c-0.102-4.075-1.045-7.105-2.83-9.093c-1.786-1.987-4.264-2.981-7.433-2.981c-3.069,0-5.546,1.032-7.433,3.094
		c-1.887,2.063-2.932,5.057-3.132,8.98H582.913z"/>
	<path class="st0" d="M620.565,48.823c-0.956,1.459-2.465,2.516-4.527,3.169c-2.063,0.653-4.377,0.981-6.942,0.981
		c-3.924,0-7.105-0.955-9.545-2.868c-2.441-1.911-3.66-4.577-3.66-7.998c0-1.459,0.251-2.842,0.755-4.15
		c0.502-1.308,1.257-2.452,2.264-3.434c1.006-0.98,2.251-1.747,3.735-2.302c1.483-0.553,3.231-0.83,5.244-0.83h12.753v-4.829
		c0-2.415-0.743-4.25-2.227-5.509c-1.484-1.257-3.987-1.886-7.508-1.886c-4.177,0-7.396,1.157-9.659,3.471l-3.019-3.245
		c1.459-1.559,3.27-2.728,5.434-3.509c2.162-0.779,4.552-1.169,7.169-1.169c1.962,0,3.822,0.177,5.584,0.528
		c1.76,0.353,3.307,0.969,4.641,1.849c1.332,0.881,2.388,2.088,3.169,3.622c0.779,1.535,1.17,3.483,1.17,5.848v25.958h-4.754v-3.622
		L620.565,48.823z M609.02,35.316c-2.717,0-4.829,0.555-6.339,1.66c-1.509,1.107-2.264,2.743-2.264,4.905
		c0,2.163,0.805,3.849,2.415,5.056c1.609,1.207,3.897,1.811,6.866,1.811c1.208,0,2.453-0.1,3.735-0.302
		c1.283-0.2,2.465-0.59,3.547-1.169c1.081-0.578,1.962-1.346,2.641-2.302c0.68-0.955,1.02-2.188,1.02-3.697v-5.962H609.02z"/>
	<path class="st0" d="M660.407,52.521V29.355c0-3.169-0.742-5.622-2.226-7.357c-1.484-1.735-3.938-2.604-7.357-2.604
		c-1.409,0-2.729,0.253-3.962,0.755c-1.233,0.504-2.302,1.221-3.207,2.15c-0.905,0.932-1.622,2.051-2.15,3.358
		c-0.528,1.309-0.792,2.768-0.792,4.377v22.486h-4.754V15.093h4.754v5.584h0.226c1.258-2.012,2.917-3.509,4.98-4.49
		c2.062-0.98,4.15-1.471,6.264-1.471c1.911,0,3.671,0.276,5.282,0.83c1.609,0.554,2.98,1.371,4.112,2.452
		c1.132,1.082,2.012,2.428,2.641,4.037c0.629,1.61,0.943,3.471,0.943,5.584v24.901H660.407z"/>
	<path class="st0" d="M720.321,37.052c0,3.018-0.44,5.534-1.32,7.546c-0.881,2.013-2.063,3.647-3.547,4.904
		c-1.484,1.258-3.195,2.15-5.131,2.679c-1.938,0.528-3.987,0.793-6.15,0.793c-2.414,0-4.591-0.441-6.527-1.321
		c-1.937-0.879-3.609-2.049-5.018-3.509l3.697-3.396c1.157,1.007,2.352,1.824,3.585,2.452c1.231,0.63,2.552,0.943,3.961,0.943
		c1.51,0,2.943-0.188,4.302-0.565c1.357-0.378,2.565-1.019,3.622-1.925c1.056-0.905,1.886-2.137,2.489-3.697
		c0.604-1.559,0.906-3.546,0.906-5.961V0.001h5.131V37.052z"/>
	<path class="st0" d="M756.768,52.521V47.39h-0.151c-1.258,2.013-2.894,3.446-4.904,4.301c-2.013,0.854-4.025,1.283-6.037,1.283
		c-1.762,0-3.446-0.29-5.056-0.868c-1.61-0.578-3.031-1.408-4.264-2.49c-1.233-1.081-2.214-2.415-2.942-3.999
		c-0.73-1.585-1.095-3.407-1.095-5.471V15.093h4.829v23.166c0,3.22,0.843,5.723,2.528,7.508c1.685,1.786,4.112,2.679,7.282,2.679
		c1.407,0,2.716-0.251,3.924-0.754c1.207-0.503,2.25-1.232,3.131-2.188c0.88-0.955,1.572-2.087,2.075-3.396
		c0.503-1.308,0.755-2.767,0.755-4.377V15.093h4.679v37.428H756.768z"/>
	<path class="st0" d="M797.741,52.521V29.355c0-3.169-0.742-5.622-2.226-7.357c-1.484-1.735-3.938-2.604-7.357-2.604
		c-1.409,0-2.729,0.253-3.962,0.755c-1.233,0.504-2.302,1.221-3.207,2.15c-0.905,0.932-1.622,2.051-2.15,3.358
		c-0.528,1.309-0.792,2.768-0.792,4.377v22.486h-4.754V15.093h4.754v5.584h0.226c1.258-2.012,2.917-3.509,4.98-4.49
		c2.062-0.98,4.15-1.471,6.264-1.471c1.911,0,3.671,0.276,5.282,0.83c1.609,0.554,2.98,1.371,4.112,2.452
		c1.132,1.082,2.012,2.428,2.641,4.037c0.629,1.61,0.943,3.471,0.943,5.584v24.901H797.741z"/>
	<path class="st0" d="M814.643,4.906V0.001h5.057v4.905H814.643z M814.795,52.521V15.093h4.829v37.428H814.795z"/>
	<path class="st0" d="M846.863,14.791c2.717,0,5.105,0.528,7.169,1.585c2.062,1.056,3.723,2.565,4.98,4.527
		c0.854,1.309,1.534,3.056,2.037,5.244s0.729,4.843,0.68,7.961c-0.051,2.969-0.366,5.483-0.943,7.546
		c-0.579,2.063-1.347,3.799-2.302,5.207c-1.409,2.112-3.195,3.659-5.357,4.641c-2.164,0.98-4.527,1.472-7.094,1.472
		c-5.131,0-8.979-1.66-11.545-4.98c-1.207-1.609-2.075-3.559-2.604-5.849c-0.528-2.288-0.792-5.042-0.792-8.263
		c0-2.816,0.251-5.206,0.755-7.168c0.502-1.962,1.231-3.698,2.188-5.207c1.308-2.113,3.044-3.76,5.207-4.942
		C841.404,15.383,843.945,14.791,846.863,14.791z M846.638,19.017c-1.913,0-3.598,0.428-5.057,1.283s-2.616,2.013-3.471,3.471
		c-0.755,1.207-1.32,2.604-1.697,4.188c-0.378,1.584-0.566,3.584-0.566,5.999c0,2.414,0.188,4.439,0.566,6.074
		c0.377,1.635,0.917,3.031,1.622,4.188c0.854,1.409,1.974,2.503,3.357,3.283s3.006,1.169,4.867,1.169
		c1.962,0,3.723-0.427,5.282-1.282c1.559-0.855,2.767-2.238,3.622-4.15c0.502-1.006,0.917-2.238,1.245-3.697
		c0.326-1.459,0.49-3.32,0.49-5.584c0-2.415-0.139-4.364-0.415-5.849c-0.276-1.483-0.667-2.729-1.169-3.735
		C853.504,20.803,850.61,19.017,846.638,19.017z"/>
	<path class="st0" d="M892.517,20.602c-0.806-0.453-1.648-0.779-2.527-0.981c-0.881-0.2-1.749-0.302-2.604-0.302
		c-2.868,0-5.22,0.905-7.056,2.717c-1.837,1.811-2.754,4.377-2.754,7.696v22.789h-4.754V15.093h4.754v5.584h0.302
		c1.308-2.364,2.917-3.962,4.829-4.792c1.911-0.83,3.924-1.219,6.037-1.169c1.156,0.051,2.226,0.177,3.207,0.377
		c0.98,0.202,1.822,0.504,2.527,0.905L892.517,20.602z"/>
	<path class="st0" d="M386.041,90.552c3.924,0,7.395,0.755,10.413,2.264c3.019,1.51,5.332,3.975,6.942,7.396
		c0.905,1.912,1.458,4.176,1.66,6.791c0.2,2.616,0.302,5.584,0.302,8.904c0,3.724-0.089,6.955-0.264,9.696
		c-0.178,2.742-0.692,5.145-1.548,7.206c-0.855,1.962-1.912,3.598-3.169,4.905c-1.258,1.309-2.691,2.352-4.301,3.132
		c-1.61,0.78-3.358,1.346-5.245,1.697c-1.886,0.353-3.886,0.528-5.998,0.528h-15.922v-52.52H386.041z M400.227,111.831
		c0-3.118-0.353-5.746-1.057-7.886c-0.705-2.137-1.698-3.848-2.98-5.131c-1.283-1.282-2.83-2.2-4.641-2.754
		c-1.812-0.553-3.8-0.83-5.962-0.83h-11.545v43.162h11.545c2.717,0,5.019-0.389,6.904-1.169c1.887-0.779,3.396-1.887,4.528-3.32
		s1.948-3.144,2.452-5.132c0.502-1.986,0.755-4.188,0.755-6.603V111.831z"/>
	<path class="st0" d="M416.979,95.457v-4.905h5.056v4.905H416.979z M417.13,143.071v-37.428h4.83v37.428H417.13z"/>
	<path class="st0" d="M446.785,136.431c0.703-2.011,1.434-4.162,2.188-6.451c0.755-2.289,1.459-4.439,2.113-6.452
		c1.006-2.917,2.024-5.886,3.056-8.904s2.05-5.985,3.057-8.904h5.282l-13.733,37.353h-4.377c-2.314-6.188-4.629-12.413-6.942-18.676
		c-2.314-6.264-4.603-12.489-6.867-18.677h5.207c1.057,2.868,2.1,5.823,3.132,8.867c1.03,3.044,2.049,6.024,3.056,8.941
		c0.2,0.555,0.516,1.434,0.943,2.642c0.427,1.207,0.88,2.478,1.358,3.811c0.478,1.333,0.931,2.603,1.358,3.811
		c0.427,1.207,0.741,2.088,0.943,2.641H446.785z"/>
	<path class="st0" d="M470.931,95.457v-4.905h5.056v4.905H470.931z M471.082,143.071v-37.428h4.829v37.428H471.082z"/>
	<path class="st0" d="M512.583,143.071v-23.166c0-3.169-0.742-5.622-2.226-7.357c-1.484-1.735-3.937-2.604-7.357-2.604
		c-1.409,0-2.729,0.253-3.962,0.755c-1.232,0.504-2.301,1.221-3.207,2.15c-0.905,0.932-1.622,2.051-2.15,3.358
		c-0.528,1.309-0.792,2.768-0.792,4.377v22.486h-4.754v-37.428h4.754v5.584h0.227c1.257-2.012,2.917-3.509,4.98-4.49
		c2.062-0.98,4.149-1.471,6.263-1.471c1.911,0,3.672,0.276,5.282,0.83c1.609,0.554,2.98,1.371,4.112,2.452
		c1.132,1.082,2.012,2.428,2.642,4.037c0.628,1.61,0.942,3.471,0.942,5.584v24.901H512.583z"/>
	<path class="st0" d="M557.104,142.618c0,2.817-0.441,5.231-1.32,7.244c-0.881,2.012-2.051,3.66-3.509,4.942
		c-1.46,1.283-3.17,2.227-5.132,2.83s-3.999,0.905-6.111,0.905c-1.963,0-3.887-0.365-5.773-1.094
		c-1.886-0.729-3.61-1.799-5.169-3.207l3.094-3.471c1.006,0.854,2.214,1.622,3.622,2.301c1.408,0.68,2.893,1.019,4.452,1.019
		c3.119,0,5.723-0.905,7.811-2.716c2.087-1.812,3.156-4.452,3.207-7.924v-5.659h-0.151c-1.358,1.962-2.956,3.396-4.791,4.301
		c-1.837,0.906-3.887,1.358-6.15,1.358c-2.667,0-4.88-0.528-6.641-1.584c-1.761-1.057-3.145-2.453-4.15-4.188
		c-1.007-1.735-1.724-3.709-2.15-5.924c-0.428-2.213-0.642-4.477-0.642-6.791c0-2.464,0.214-4.879,0.642-7.244
		c0.427-2.363,1.17-4.477,2.227-6.338c1.056-1.861,2.477-3.358,4.263-4.49c1.785-1.132,4.037-1.698,6.754-1.698
		c1.86,0,3.735,0.353,5.622,1.057c1.887,0.705,3.559,2.063,5.018,4.075h0.151v-4.679h4.754L557.104,142.618z M532.505,124.358
		c0,1.66,0.113,3.346,0.34,5.056c0.227,1.711,0.703,3.258,1.434,4.641c0.729,1.385,1.747,2.517,3.056,3.396
		c1.308,0.881,3.043,1.321,5.207,1.321c1.962,0,3.571-0.427,4.829-1.283c1.257-0.854,2.251-1.962,2.98-3.32s1.232-2.905,1.51-4.641
		c0.275-1.735,0.415-3.482,0.415-5.244c0-1.51-0.113-3.105-0.34-4.792c-0.227-1.685-0.692-3.245-1.396-4.679
		c-0.705-1.434-1.687-2.628-2.943-3.584c-1.258-0.955-2.943-1.434-5.056-1.434c-2.214,0-3.987,0.466-5.32,1.396
		c-1.333,0.932-2.352,2.113-3.056,3.547c-0.705,1.434-1.158,3.007-1.358,4.716C532.605,121.163,532.505,122.799,532.505,124.358z"/>
	<path class="st0" d="M622.752,132.658c-1.309,3.371-3.422,6.024-6.339,7.961c-2.918,1.937-6.439,2.905-10.563,2.905
		c-3.221,0-5.987-0.516-8.301-1.547c-2.314-1.031-4.226-2.427-5.735-4.188c-1.509-1.76-2.616-3.811-3.319-6.149
		c-0.705-2.34-1.057-4.792-1.057-7.357v-15.017c0-2.565,0.364-4.992,1.094-7.282c0.729-2.288,1.849-4.312,3.358-6.074
		c1.509-1.76,3.42-3.156,5.734-4.188c2.313-1.03,5.056-1.547,8.226-1.547c4.074,0,7.546,0.956,10.413,2.867
		c2.867,1.912,4.98,4.452,6.339,7.621l-4.754,2.188c-0.957-2.313-2.453-4.199-4.49-5.659c-2.037-1.459-4.516-2.188-7.433-2.188
		c-2.365,0-4.402,0.403-6.112,1.207c-1.711,0.806-3.106,1.875-4.188,3.207c-1.083,1.334-1.875,2.881-2.377,4.641
		c-0.504,1.762-0.755,3.573-0.755,5.434v14.563c0,1.912,0.251,3.748,0.755,5.509c0.502,1.761,1.282,3.32,2.339,4.678
		c1.057,1.358,2.439,2.453,4.15,3.283c1.709,0.83,3.772,1.245,6.188,1.245c2.968,0,5.471-0.755,7.508-2.264
		c2.038-1.51,3.559-3.547,4.565-6.112L622.752,132.658z"/>
	<path class="st0" d="M655.124,143.071v-23.166c0-3.169-0.729-5.622-2.188-7.357c-1.46-1.735-3.849-2.604-7.169-2.604
		c-1.409,0-2.729,0.253-3.962,0.755c-1.233,0.504-2.314,1.221-3.244,2.15c-0.932,0.932-1.674,2.051-2.227,3.358
		c-0.554,1.309-0.83,2.768-0.83,4.377v22.486h-4.754V88.363h4.754v22.864h0.227c1.257-2.012,2.917-3.509,4.98-4.49
		c2.062-0.98,4.15-1.471,6.263-1.471c1.911,0,3.672,0.276,5.282,0.83c1.609,0.554,2.98,1.371,4.112,2.452
		c1.132,1.082,2.012,2.428,2.642,4.037c0.628,1.61,0.943,3.471,0.943,5.584v24.901H655.124z"/>
	<path class="st0" d="M694.437,139.374c-0.956,1.459-2.465,2.516-4.527,3.169c-2.063,0.653-4.377,0.981-6.942,0.981
		c-3.924,0-7.106-0.955-9.546-2.868c-2.44-1.911-3.659-4.577-3.659-7.998c0-1.459,0.251-2.842,0.755-4.15
		c0.502-1.308,1.257-2.452,2.264-3.434c1.005-0.98,2.25-1.747,3.734-2.302c1.483-0.553,3.232-0.83,5.245-0.83h12.752v-4.829
		c0-2.415-0.742-4.25-2.226-5.509c-1.484-1.257-3.987-1.886-7.508-1.886c-4.177,0-7.396,1.157-9.659,3.471l-3.019-3.245
		c1.459-1.559,3.27-2.728,5.434-3.509c2.162-0.779,4.552-1.169,7.168-1.169c1.962,0,3.822,0.177,5.584,0.528
		c1.761,0.353,3.308,0.969,4.641,1.849c1.333,0.881,2.389,2.088,3.17,3.622c0.779,1.535,1.169,3.483,1.169,5.848v25.958h-4.754
		v-3.622L694.437,139.374z M682.893,125.866c-2.717,0-4.829,0.555-6.339,1.66c-1.509,1.107-2.264,2.743-2.264,4.905
		c0,2.163,0.804,3.849,2.415,5.056c1.609,1.207,3.897,1.811,6.866,1.811c1.208,0,2.452-0.1,3.735-0.302
		c1.283-0.2,2.464-0.59,3.547-1.169c1.081-0.578,1.962-1.346,2.641-2.302c0.68-0.955,1.019-2.188,1.019-3.697v-5.962H682.893z"/>
	<path class="st0" d="M758.727,119.905c0-3.019-0.743-5.444-2.227-7.281c-1.484-1.836-3.861-2.755-7.131-2.755
		c-1.409,0-2.729,0.253-3.962,0.755c-1.232,0.503-2.314,1.207-3.244,2.112c-0.932,0.906-1.66,2.013-2.188,3.32
		c-0.528,1.309-0.792,2.768-0.792,4.377v22.638h-4.754v-23.166c0-3.019-0.793-5.444-2.377-7.281
		c-1.585-1.836-3.988-2.755-7.207-2.755c-2.867,0-5.232,0.956-7.093,2.867c-1.861,1.913-2.792,4.479-2.792,7.697v22.638h-4.754
		v-37.428h4.754v5.433h0.151c1.207-2.011,2.829-3.471,4.866-4.376c2.038-0.905,4.113-1.358,6.226-1.358
		c2.817,0,5.169,0.565,7.056,1.698c1.887,1.132,3.407,2.704,4.565,4.716v-0.075c0.05,0,0.075,0.025,0.075,0.075
		c1.51-2.264,3.345-3.898,5.509-4.905c2.162-1.005,4.603-1.509,7.319-1.509c1.812,0,3.496,0.29,5.056,0.868
		c1.559,0.578,2.905,1.408,4.037,2.489c1.132,1.083,2.024,2.415,2.679,4c0.653,1.584,0.981,3.384,0.981,5.396v24.977h-4.754V119.905
		z"/>
	<path class="st0" d="M779.779,105.644v5.207l0.151,0.075c1.509-2.213,3.245-3.709,5.207-4.49c1.962-0.779,3.897-1.169,5.81-1.169
		c2.717,0,4.943,0.528,6.679,1.584c1.735,1.057,3.105,2.466,4.112,4.226c1.006,1.762,1.71,3.786,2.113,6.075
		c0.401,2.289,0.604,4.641,0.604,7.055c0,2.365-0.215,4.705-0.642,7.019c-0.428,2.314-1.183,4.376-2.264,6.188
		c-1.083,1.811-2.565,3.282-4.452,4.414s-4.264,1.698-7.131,1.698c-2.365,0-4.365-0.465-5.999-1.396
		c-1.636-0.93-2.98-2.2-4.037-3.811h-0.151v19.694h-4.754v-52.368H779.779z M779.779,124.358c0,1.762,0.139,3.509,0.415,5.244
		c0.276,1.736,0.767,3.283,1.472,4.641c0.704,1.358,1.698,2.466,2.98,3.32c1.283,0.856,2.905,1.283,4.867,1.283
		c2.163,0,3.898-0.439,5.207-1.32c1.308-0.88,2.313-2.024,3.019-3.434c0.703-1.408,1.169-2.955,1.396-4.641
		c0.227-1.686,0.34-3.358,0.34-5.019c0-1.559-0.089-3.207-0.265-4.942c-0.177-1.735-0.578-3.32-1.207-4.754
		c-0.63-1.434-1.585-2.615-2.867-3.547c-1.283-0.93-3.031-1.396-5.244-1.396c-2.113,0-3.837,0.479-5.169,1.434
		c-1.334,0.956-2.365,2.164-3.094,3.622c-0.73,1.46-1.221,3.031-1.472,4.716C779.904,121.252,779.779,122.849,779.779,124.358z"/>
	<path class="st0" d="M815.848,95.457v-4.905h5.057v4.905H815.848z M815.999,143.071v-37.428h4.829v37.428H815.999z"/>
	<path class="st0" d="M848.068,105.342c2.717,0,5.105,0.528,7.169,1.585c2.062,1.056,3.723,2.565,4.98,4.527
		c0.854,1.309,1.534,3.056,2.037,5.244s0.729,4.843,0.68,7.961c-0.051,2.969-0.366,5.483-0.943,7.546
		c-0.579,2.063-1.347,3.799-2.302,5.207c-1.409,2.112-3.195,3.659-5.357,4.641c-2.164,0.98-4.527,1.472-7.094,1.472
		c-5.131,0-8.979-1.66-11.545-4.98c-1.207-1.609-2.075-3.559-2.604-5.849c-0.528-2.288-0.792-5.042-0.792-8.263
		c0-2.816,0.251-5.206,0.755-7.168c0.502-1.962,1.231-3.698,2.188-5.207c1.308-2.113,3.044-3.76,5.207-4.942
		C842.609,105.934,845.15,105.342,848.068,105.342z M847.843,109.568c-1.913,0-3.598,0.428-5.057,1.283s-2.616,2.013-3.471,3.471
		c-0.755,1.207-1.32,2.604-1.697,4.188c-0.378,1.584-0.566,3.584-0.566,5.999c0,2.414,0.188,4.439,0.566,6.074
		c0.377,1.635,0.917,3.031,1.622,4.188c0.854,1.409,1.974,2.503,3.357,3.283s3.006,1.169,4.867,1.169
		c1.962,0,3.723-0.427,5.282-1.282c1.559-0.855,2.767-2.238,3.622-4.15c0.502-1.006,0.917-2.238,1.245-3.697
		c0.326-1.459,0.49-3.32,0.49-5.584c0-2.415-0.139-4.364-0.415-5.849c-0.276-1.483-0.667-2.729-1.169-3.735
		C854.709,111.354,851.815,109.568,847.843,109.568z"/>
	<path class="st0" d="M897.644,143.071v-23.166c0-3.169-0.742-5.622-2.226-7.357c-1.484-1.735-3.938-2.604-7.357-2.604
		c-1.409,0-2.729,0.253-3.962,0.755c-1.233,0.504-2.302,1.221-3.207,2.15c-0.905,0.932-1.622,2.051-2.15,3.358
		c-0.528,1.309-0.792,2.768-0.792,4.377v22.486h-4.754v-37.428h4.754v5.584h0.226c1.258-2.012,2.917-3.509,4.98-4.49
		c2.062-0.98,4.15-1.471,6.264-1.471c1.911,0,3.671,0.276,5.282,0.83c1.609,0.554,2.98,1.371,4.112,2.452
		c1.132,1.082,2.012,2.428,2.641,4.037c0.629,1.61,0.943,3.471,0.943,5.584v24.901H897.644z"/>
	<path class="st0" d="M940.43,132.432c0,3.271-1.296,5.937-3.886,7.999c-2.592,2.062-6.15,3.094-10.678,3.094
		c-2.717,0-5.396-0.391-8.036-1.17c-2.642-0.779-5.044-2.049-7.207-3.811l2.943-3.697c3.571,2.969,7.797,4.451,12.677,4.451
		c1.106,0,2.227-0.124,3.358-0.377c1.132-0.251,2.138-0.653,3.019-1.207c0.879-0.553,1.596-1.257,2.15-2.113
		c0.553-0.854,0.83-1.911,0.83-3.169c0-1.106-0.253-2.037-0.755-2.792c-0.503-0.755-1.195-1.37-2.075-1.849
		c-0.881-0.478-1.899-0.842-3.056-1.095c-1.158-0.251-2.365-0.452-3.622-0.604c-1.561-0.2-3.12-0.452-4.679-0.754
		c-1.56-0.303-2.969-0.793-4.226-1.472c-1.258-0.68-2.29-1.609-3.094-2.792c-0.806-1.182-1.207-2.755-1.207-4.717
		c0-1.709,0.351-3.256,1.056-4.641c0.704-1.383,1.66-2.553,2.868-3.509c1.207-0.955,2.641-1.685,4.301-2.188
		c1.66-0.502,3.445-0.754,5.357-0.754c2.767,0,5.169,0.314,7.206,0.943c2.038,0.629,3.911,1.572,5.622,2.829l-2.641,3.773
		c-1.46-0.955-3.007-1.723-4.642-2.302c-1.635-0.578-3.459-0.868-5.471-0.868c-2.667,0-4.817,0.566-6.451,1.698
		c-1.636,1.132-2.479,2.729-2.528,4.792c0,1.056,0.251,1.912,0.755,2.565c0.502,0.654,1.219,1.195,2.15,1.622
		c0.931,0.428,2.037,0.768,3.32,1.019c1.283,0.253,2.729,0.479,4.339,0.68c1.408,0.15,2.842,0.428,4.301,0.83
		c1.459,0.403,2.779,0.993,3.962,1.772c1.182,0.781,2.15,1.8,2.905,3.057C940.053,128.936,940.43,130.521,940.43,132.432z"/>
	<path class="st0" d="M974.386,143.071v-23.166c0-3.169-0.729-5.622-2.188-7.357c-1.46-1.735-3.849-2.604-7.169-2.604
		c-1.409,0-2.729,0.253-3.962,0.755c-1.233,0.504-2.314,1.221-3.244,2.15c-0.932,0.932-1.674,2.051-2.227,3.358
		c-0.554,1.309-0.83,2.768-0.83,4.377v22.486h-4.754V88.363h4.754v22.864h0.227c1.257-2.012,2.917-3.509,4.98-4.49
		c2.062-0.98,4.15-1.471,6.263-1.471c1.911,0,3.672,0.276,5.282,0.83c1.609,0.554,2.98,1.371,4.112,2.452
		c1.132,1.082,2.012,2.428,2.642,4.037c0.628,1.61,0.943,3.471,0.943,5.584v24.901H974.386z"/>
	<path class="st0" d="M991.438,95.457v-4.905h5.057v4.905H991.438z M991.59,143.071v-37.428h4.829v37.428H991.59z"/>
	<path class="st0" d="M1013.321,105.644v5.207l0.151,0.075c1.509-2.213,3.245-3.709,5.207-4.49c1.962-0.779,3.897-1.169,5.81-1.169
		c2.717,0,4.943,0.528,6.679,1.584c1.735,1.057,3.105,2.466,4.112,4.226c1.006,1.762,1.71,3.786,2.113,6.075
		c0.401,2.289,0.604,4.641,0.604,7.055c0,2.365-0.215,4.705-0.642,7.019c-0.428,2.314-1.183,4.376-2.264,6.188
		c-1.083,1.811-2.565,3.282-4.452,4.414s-4.264,1.698-7.131,1.698c-2.365,0-4.365-0.465-5.999-1.396
		c-1.636-0.93-2.98-2.2-4.037-3.811h-0.151v19.694h-4.754v-52.368H1013.321z M1013.321,124.358c0,1.762,0.139,3.509,0.415,5.244
		c0.276,1.736,0.767,3.283,1.472,4.641c0.704,1.358,1.698,2.466,2.98,3.32c1.283,0.856,2.905,1.283,4.867,1.283
		c2.163,0,3.898-0.439,5.207-1.32c1.308-0.88,2.313-2.024,3.019-3.434c0.703-1.408,1.169-2.955,1.396-4.641
		c0.227-1.686,0.34-3.358,0.34-5.019c0-1.559-0.089-3.207-0.265-4.942c-0.177-1.735-0.578-3.32-1.207-4.754
		c-0.63-1.434-1.585-2.615-2.867-3.547c-1.283-0.93-3.031-1.396-5.244-1.396c-2.113,0-3.837,0.479-5.169,1.434
		c-1.334,0.956-2.365,2.164-3.094,3.622c-0.73,1.46-1.221,3.031-1.472,4.716C1013.446,121.252,1013.321,122.849,1013.321,124.358z"
		/>
	<path class="st0" d="M1075.272,132.432c0,3.271-1.296,5.937-3.886,7.999c-2.592,2.062-6.15,3.094-10.678,3.094
		c-2.717,0-5.396-0.391-8.036-1.17c-2.642-0.779-5.044-2.049-7.207-3.811l2.943-3.697c3.571,2.969,7.797,4.451,12.677,4.451
		c1.106,0,2.227-0.124,3.358-0.377c1.132-0.251,2.138-0.653,3.019-1.207c0.879-0.553,1.596-1.257,2.15-2.113
		c0.553-0.854,0.83-1.911,0.83-3.169c0-1.106-0.253-2.037-0.755-2.792c-0.503-0.755-1.195-1.37-2.075-1.849
		c-0.881-0.478-1.899-0.842-3.056-1.095c-1.158-0.251-2.365-0.452-3.622-0.604c-1.561-0.2-3.12-0.452-4.679-0.754
		c-1.56-0.303-2.969-0.793-4.226-1.472c-1.258-0.68-2.29-1.609-3.094-2.792c-0.806-1.182-1.207-2.755-1.207-4.717
		c0-1.709,0.351-3.256,1.056-4.641c0.704-1.383,1.66-2.553,2.868-3.509c1.207-0.955,2.641-1.685,4.301-2.188
		c1.66-0.502,3.445-0.754,5.357-0.754c2.767,0,5.169,0.314,7.206,0.943c2.038,0.629,3.911,1.572,5.622,2.829l-2.641,3.773
		c-1.46-0.955-3.007-1.723-4.642-2.302c-1.635-0.578-3.459-0.868-5.471-0.868c-2.667,0-4.817,0.566-6.451,1.698
		c-1.636,1.132-2.479,2.729-2.528,4.792c0,1.056,0.251,1.912,0.755,2.565c0.502,0.654,1.219,1.195,2.15,1.622
		c0.931,0.428,2.037,0.768,3.32,1.019c1.283,0.253,2.729,0.479,4.339,0.68c1.408,0.15,2.842,0.428,4.301,0.83
		c1.459,0.403,2.779,0.993,3.962,1.772c1.182,0.781,2.15,1.8,2.905,3.057C1074.895,128.936,1075.272,130.521,1075.272,132.432z"/>
</g>
<g>
	<path class="st0" d="M404.302,291.881c0,2.112-0.366,4.037-1.094,5.772c-0.73,1.735-1.735,3.22-3.019,4.452
		c-1.283,1.233-2.78,2.177-4.49,2.829c-1.71,0.655-3.546,0.981-5.508,0.981h-21.128v-52.52h19.091c2.415,0,4.552,0.34,6.414,1.019
		c1.861,0.68,3.42,1.622,4.679,2.83c1.257,1.207,2.213,2.629,2.867,4.264c0.653,1.635,0.981,3.384,0.981,5.244
		c0,1.007-0.139,2.088-0.415,3.244c-0.277,1.158-0.754,2.29-1.434,3.396s-1.584,2.139-2.716,3.094
		c-1.132,0.956-2.554,1.686-4.264,2.188v0.15c1.811,0.353,3.358,0.981,4.641,1.887s2.313,1.975,3.094,3.207
		c0.78,1.233,1.358,2.554,1.736,3.961C404.113,289.29,404.302,290.624,404.302,291.881z M372.534,256.49v20.902h15.016
		c3.671,0,6.59-0.955,8.753-2.867c2.162-1.911,3.245-4.452,3.245-7.622c0-3.018-1.032-5.508-3.094-7.47
		c-2.063-1.962-5.031-2.943-8.904-2.943H372.534z M372.534,280.487v22.185h16.148c4.024,0,7.018-1.056,8.979-3.169
		s2.943-4.754,2.943-7.923c0-1.459-0.239-2.854-0.717-4.188c-0.479-1.332-1.22-2.515-2.226-3.546
		c-1.007-1.031-2.264-1.85-3.773-2.453c-1.509-0.604-3.271-0.905-5.282-0.905H372.534z"/>
	<path class="st0" d="M415.922,287.731c-0.051,2.112,0.138,4.139,0.566,6.074c0.427,1.938,1.144,3.622,2.15,5.056
		c1.006,1.434,2.339,2.579,4,3.434c1.66,0.856,3.697,1.283,6.112,1.283c1.609,0,3.194-0.302,4.754-0.906
		c1.559-0.604,2.992-1.383,4.301-2.339l1.886,2.415c-1.61,1.309-3.32,2.252-5.131,2.829c-1.811,0.578-3.697,0.868-5.659,0.868
		c-1.913,0-3.824-0.252-5.735-0.755c-1.913-0.502-3.635-1.458-5.169-2.867c-1.535-1.408-2.792-3.345-3.773-5.811
		c-0.981-2.464-1.472-5.659-1.472-9.583c0-3.773,0.465-6.904,1.396-9.395c0.93-2.49,2.113-4.478,3.547-5.962
		c1.434-1.482,3.043-2.515,4.829-3.094c1.785-0.577,3.559-0.867,5.32-0.867c2.464,0,4.615,0.44,6.452,1.32
		c1.836,0.881,3.37,2.075,4.603,3.584c1.232,1.51,2.151,3.309,2.754,5.396c0.604,2.088,0.906,4.339,0.906,6.754v2.565H415.922z
		 M439.314,285.014c-0.101-4.728-1.169-8.236-3.207-10.526c-2.037-2.288-4.792-3.434-8.263-3.434c-3.572,0-6.376,1.208-8.414,3.622
		c-2.038,2.415-3.182,5.861-3.434,10.338H439.314z"/>
	<path class="st0" d="M472.139,272.337c-0.856-0.402-1.698-0.691-2.528-0.868c-0.83-0.176-1.623-0.264-2.377-0.264
		c-1.611,0-3.094,0.277-4.452,0.83c-1.358,0.554-2.528,1.347-3.509,2.377c-0.981,1.031-1.749,2.264-2.301,3.697
		c-0.554,1.434-0.83,3.056-0.83,4.867v22.939h-3.245v-37.428h3.245v6.414h0.226c1.308-2.615,3.019-4.401,5.131-5.357
		c2.113-0.955,4.25-1.434,6.414-1.434c1.056,0,2.062,0.063,3.018,0.188c0.955,0.126,1.811,0.365,2.566,0.717L472.139,272.337z"/>
	<path class="st0" d="M502.473,274.449v-5.961h3.245l0.075,37.201c0,2.817-0.428,5.231-1.283,7.244
		c-0.856,2.012-2.025,3.646-3.509,4.905c-1.484,1.257-3.182,2.175-5.093,2.754c-1.913,0.578-3.924,0.868-6.037,0.868
		c-1.761,0-3.509-0.302-5.244-0.906c-1.736-0.604-3.333-1.535-4.792-2.792l2.113-2.49c1.056,0.855,2.289,1.597,3.697,2.227
		c1.408,0.628,2.917,0.943,4.528,0.943c1.709,0,3.32-0.265,4.829-0.793c1.509-0.527,2.817-1.295,3.924-2.301
		c1.106-1.007,1.974-2.239,2.604-3.697c0.628-1.46,0.943-3.145,0.943-5.057l0.075-7.47h-0.151c-1.208,2.214-2.743,3.961-4.603,5.244
		c-1.862,1.283-4.226,1.924-7.093,1.924c-2.716,0-4.968-0.54-6.753-1.622c-1.786-1.081-3.207-2.515-4.264-4.301
		c-1.056-1.785-1.799-3.798-2.226-6.037c-0.428-2.237-0.642-4.515-0.642-6.829c0-2.515,0.227-4.942,0.679-7.281
		c0.453-2.34,1.219-4.401,2.301-6.188c1.082-1.785,2.502-3.219,4.264-4.301c1.76-1.081,3.973-1.622,6.64-1.622
		c0.906,0,1.874,0.075,2.905,0.227c1.031,0.15,2.062,0.452,3.094,0.905c1.031,0.452,2.024,1.094,2.981,1.924
		c0.955,0.83,1.811,1.925,2.565,3.282H502.473z M480.212,287.278c0,1.812,0.151,3.648,0.453,5.509
		c0.302,1.861,0.868,3.572,1.698,5.131c0.83,1.561,1.974,2.83,3.433,3.812c1.458,0.98,3.37,1.471,5.735,1.471
		c2.012,0,3.709-0.439,5.094-1.32c1.383-0.88,2.515-2.075,3.396-3.584c0.879-1.51,1.509-3.245,1.887-5.207
		c0.377-1.962,0.566-3.999,0.566-6.112c0-1.609-0.139-3.332-0.415-5.169c-0.277-1.836-0.818-3.546-1.623-5.131
		c-0.805-1.585-1.924-2.905-3.358-3.962s-3.283-1.584-5.546-1.584c-2.465,0-4.44,0.527-5.923,1.584
		c-1.484,1.057-2.629,2.377-3.434,3.962c-0.805,1.585-1.333,3.32-1.584,5.206C480.337,283.769,480.212,285.569,480.212,287.278z"/>
	<path class="st0" d="M519.45,287.731c-0.051,2.112,0.138,4.139,0.566,6.074c0.427,1.938,1.144,3.622,2.15,5.056
		c1.006,1.434,2.339,2.579,4,3.434c1.66,0.856,3.697,1.283,6.112,1.283c1.609,0,3.194-0.302,4.754-0.906
		c1.559-0.604,2.992-1.383,4.301-2.339l1.886,2.415c-1.61,1.309-3.32,2.252-5.131,2.829c-1.811,0.578-3.697,0.868-5.659,0.868
		c-1.913,0-3.824-0.252-5.735-0.755c-1.913-0.502-3.635-1.458-5.169-2.867c-1.535-1.408-2.792-3.345-3.773-5.811
		c-0.981-2.464-1.472-5.659-1.472-9.583c0-3.773,0.465-6.904,1.396-9.395c0.93-2.49,2.113-4.478,3.547-5.962
		c1.434-1.482,3.043-2.515,4.829-3.094c1.785-0.577,3.559-0.867,5.32-0.867c2.464,0,4.615,0.44,6.452,1.32
		c1.836,0.881,3.37,2.075,4.603,3.584c1.232,1.51,2.151,3.309,2.754,5.396c0.604,2.088,0.906,4.339,0.906,6.754v2.565H519.45z
		 M542.842,285.014c-0.101-4.728-1.169-8.236-3.207-10.526c-2.037-2.288-4.792-3.434-8.263-3.434c-3.572,0-6.376,1.208-8.414,3.622
		c-2.038,2.415-3.182,5.861-3.434,10.338H542.842z"/>
	<path class="st0" d="M581.024,305.916v-23.921c0-3.471-0.88-6.124-2.641-7.961c-1.762-1.835-4.402-2.754-7.923-2.754
		c-1.611,0-3.12,0.29-4.528,0.868s-2.629,1.396-3.659,2.452c-1.032,1.057-1.849,2.327-2.452,3.811
		c-0.604,1.484-0.906,3.106-0.906,4.867v22.638h-3.245v-37.353h3.245v6.414h0.151c0.604-1.207,1.37-2.237,2.302-3.094
		c0.93-0.854,1.948-1.559,3.056-2.112c1.106-0.554,2.238-0.955,3.396-1.208c1.157-0.251,2.264-0.377,3.32-0.377
		c4.226,0,7.471,1.094,9.734,3.282s3.396,5.32,3.396,9.395v25.053H581.024z"/>
	<path class="st0" d="M613.547,305.916v-3.32l21.884-28.297c0.855-1.106,1.559-2.452,2.113-4.037c0.553-1.585,0.83-3.03,0.83-4.339
		c0-1.308-0.227-2.553-0.68-3.735c-0.453-1.182-1.119-2.213-2-3.094c-0.881-0.88-1.961-1.571-3.244-2.075
		c-1.283-0.502-2.781-0.755-4.49-0.755c-2.465,0-4.654,0.755-6.565,2.264c-1.912,1.51-3.194,3.472-3.848,5.886l-3.396-0.527
		c0.401-1.66,1.043-3.144,1.924-4.452c0.88-1.308,1.936-2.427,3.169-3.358c1.232-0.93,2.591-1.647,4.075-2.15
		c1.482-0.502,3.029-0.755,4.641-0.755c2.162,0,4.113,0.315,5.848,0.943c1.736,0.63,3.207,1.51,4.414,2.642
		c1.209,1.132,2.125,2.452,2.756,3.961c0.627,1.51,0.943,3.17,0.943,4.98c0,1.61-0.291,3.309-0.869,5.094
		c-0.578,1.786-1.496,3.459-2.754,5.018l-20.676,26.863h23.92v3.245H613.547z"/>
	<path class="st0" d="M679.121,292.409c0,2.264-0.378,4.251-1.132,5.961c-0.755,1.711-1.773,3.157-3.057,4.339
		c-1.282,1.183-2.768,2.075-4.452,2.679c-1.686,0.604-3.434,0.905-5.244,0.905c-1.812,0-3.56-0.302-5.244-0.905
		c-1.687-0.604-3.17-1.496-4.452-2.679c-1.283-1.182-2.302-2.628-3.057-4.339c-0.754-1.71-1.132-3.697-1.132-5.961v-25.43
		c0-2.264,0.378-4.264,1.132-5.999c0.755-1.736,1.773-3.194,3.057-4.377c1.282-1.182,2.766-2.075,4.452-2.679
		c1.685-0.604,3.433-0.905,5.244-0.905c1.811,0,3.559,0.302,5.244,0.905c1.685,0.604,3.17,1.497,4.452,2.679
		c1.283,1.183,2.302,2.641,3.057,4.377c0.754,1.735,1.132,3.735,1.132,5.999V292.409z M675.951,267.432
		c0-3.42-0.98-6.161-2.942-8.225c-1.962-2.062-4.554-3.094-7.772-3.094c-3.22,0-5.799,1.031-7.734,3.094
		c-1.938,2.063-2.905,4.805-2.905,8.225v24.449c0,3.421,0.968,6.176,2.905,8.263c1.936,2.088,4.515,3.132,7.734,3.132
		c3.219,0,5.811-1.044,7.772-3.132c1.962-2.087,2.942-4.842,2.942-8.263V267.432z"/>
	<path class="st0" d="M705.833,305.916h-3.32v-48.897l-7.696,5.131v-3.622l7.621-5.131h3.396V305.916z"/>
	<path class="st0" d="M735.413,305.916h-3.698l19.242-49.274h-21.279v8.225h-3.244v-11.47h28.07v3.32L735.413,305.916z"/>
</g>
</svg>